<svg width="764" height="756" viewBox="0 0 764 756" fill="none" xmlns="http://www.w3.org/2000/svg">
<path d="M97.1644 66.3227C175.432 52.3584 321.103 33.7344 374.296 51.2665C390.002 56.443 390.237 74.7351 383.399 89.7919C263.052 354.787 143.144 392.019 97.1644 376.61C56.4897 363.307 -18.7247 324.197 5.81494 274.179C30.3546 224.16 73.4508 189.041 112.333 189.041C204.166 189.041 253.311 251.5 349.574 312C392.582 339.03 652.677 441.461 718.408 339.03C784.139 236.598 776.386 83.9488 700.543 26.4142C673.666 6.02588 644.431 -0.0630633 617.7 1.1466C569.11 3.34544 552.952 58.773 573.652 102.788C639.362 242.504 726.788 426.171 660.657 429.5C561.555 434.489 117.389 400.839 150.423 573.442C183.458 746.046 677.958 813.558 718.408 693.5" stroke="black" stroke-width="2"/>
</svg>
