<svg width="430" height="1734" viewBox="0 0 430 1734" fill="none" xmlns="http://www.w3.org/2000/svg">
<path d="M-11.8186 66.3227C66.4621 52.3585 212.157 33.7348 265.361 51.266C281.069 56.4422 281.305 74.7364 274.465 89.7952C154.097 354.787 34.169 392.019 -11.8186 376.61C-52.5004 363.307 -127.728 324.197 -103.184 274.179C-78.6402 224.16 -35.5364 189.041 3.35284 189.041C95.2022 189.041 142.72 265.5 239 326C282.015 353.03 543.792 441.461 609.535 339.03C675.278 236.598 667.524 83.9488 591.667 26.4142C564.785 6.02572 535.544 -0.0631599 508.808 1.14663C460.213 3.34555 444.052 58.7784 464.758 102.797C530.479 242.512 617.915 426.171 551.774 429.5C452.654 434.489 8.40997 400.839 41.4499 573.442C74.4899 746.046 569.078 813.558 609.535 693.5C611.523 843.667 588.1 1126.9 478.5 1058.5C341.5 973 375.55 809.5 208.5 847C91.9657 873.16 42.7991 992.721 28.2651 1071.08C24.4309 1091.75 26.3286 1112.94 31.9252 1133.2C54.6697 1215.57 96.5673 1324.73 130.5 1271C168.9 1210.2 295.5 1268.33 354 1305C402.5 1432.17 470.4 1685.8 354 1683C237.6 1680.2 110.5 1714.83 61.5 1732.5" stroke="#7B7C7E" stroke-width="2"/>
</svg>
