<svg width="51" height="32" viewBox="0 0 51 32" fill="none" xmlns="http://www.w3.org/2000/svg">
<path d="M39.9111 32C38.239 32 36.7135 31.7516 35.3348 31.2548C33.956 30.7288 32.7826 30.0128 31.8145 29.1068C30.8464 28.1717 30.0837 27.0466 29.5263 25.7315C28.9983 24.4164 28.7343 22.9553 28.7343 21.3479C28.7343 19.6822 29.0276 17.9434 29.6143 16.1315C30.2304 14.3196 31.1104 12.4932 32.2545 10.6521C33.3986 8.81096 34.7774 6.99909 36.3909 5.21644C38.0336 3.40457 39.8965 1.66575 41.9793 0L47.0397 3.94521C46.0716 4.93881 45.1915 5.88858 44.3995 6.79452C43.6368 7.70046 42.9327 8.60639 42.2873 9.51233C41.6419 10.4183 41.0406 11.3534 40.4832 12.3178C39.9551 13.2822 39.4711 14.305 39.0311 15.3863L51 21.3479C51 22.926 50.692 24.3726 50.0759 25.6877C49.4892 27.0027 48.6972 28.1279 47.6997 29.063C46.7023 29.9982 45.5289 30.7288 44.1795 31.2548C42.83 31.7516 41.4072 32 39.9111 32ZM11.1769 32C9.50475 32 7.97929 31.7516 6.60052 31.2548C5.22174 30.7288 4.04832 30.0128 3.08024 29.1068C2.11217 28.1717 1.34944 27.0466 0.792062 25.7315C0.264021 24.4164 0 22.9553 0 21.3479C0 19.6822 0.293356 17.9434 0.880069 16.1315C1.49612 14.3196 2.37619 12.4932 3.52028 10.6521C4.66437 8.81096 6.04314 6.99909 7.6566 5.21644C9.2994 3.40457 11.1622 1.66575 13.245 0L18.3054 3.94521C17.3374 4.93881 16.4573 5.88858 15.6652 6.79452C14.9025 7.70046 14.1984 8.60639 13.5531 9.51233C12.9077 10.4183 12.3063 11.3534 11.7489 12.3178C11.2209 13.2822 10.7368 14.305 10.2968 15.3863L22.2657 21.3479C22.2657 22.926 21.9577 24.3726 21.3417 25.6877C20.755 27.0027 19.9629 28.1279 18.9655 29.063C17.9681 29.9982 16.7947 30.7288 15.4452 31.2548C14.0958 31.7516 12.673 32 11.1769 32Z" fill="#262627"/>
</svg>
