<?xml version="1.0" standalone="no"?>
<!DOCTYPE svg PUBLIC "-//W3C//DTD SVG 20010904//EN"
 "http://www.w3.org/TR/2001/REC-SVG-20010904/DTD/svg10.dtd">
<svg version="1.0"  xmlns="http://www.w3.org/2000/svg"
 width="32" height="32" viewBox="0 0 512.000000 512.000000"
 preserveAspectRatio="xMidYMid meet">

<g transform="translate(0.000000,512.000000) scale(0.100000,-0.100000)"
fill="#ffffff" stroke="none">
<path d="M2485 3745 c-17 -9 -389 -374 -827 -813 -868 -868 -833 -830 -809
-917 13 -48 36 -76 82 -104 37 -23 98 -27 132 -10 12 6 352 340 754 742 l733
732 737 -737 c818 -816 775 -779 867 -744 85 33 131 116 108 194 -9 30 -177
202 -819 844 -452 451 -820 812 -836 818 -39 14 -87 12 -122 -5z"/>
</g>
</svg>
