<svg width="32" height="36" viewBox="0 0 32 36" fill="none" xmlns="http://www.w3.org/2000/svg">
<g id="youtube">
<path id="Vector" d="M30.0533 9.63C29.895 8.91811 29.5724 8.26586 29.1182 7.73911C28.664 7.21236 28.0943 6.82978 27.4667 6.63C25.1733 6 16 6 16 6C16 6 6.82668 6 4.53334 6.69C3.90567 6.88978 3.33598 7.27236 2.8818 7.79911C2.42763 8.32586 2.10506 8.97811 1.94668 9.69C1.52696 12.3083 1.32166 14.9645 1.33334 17.625C1.31838 20.3056 1.5237 22.982 1.94668 25.62C2.12129 26.3098 2.45108 26.9372 2.9042 27.4417C3.35732 27.9462 3.91844 28.3107 4.53334 28.5C6.82668 29.19 16 29.19 16 29.19C16 29.19 25.1733 29.19 27.4667 28.5C28.0943 28.3002 28.664 27.9176 29.1182 27.3909C29.5724 26.8641 29.895 26.2119 30.0533 25.5C30.4698 22.9014 30.6751 20.2655 30.6667 17.625C30.6816 14.9444 30.4763 12.268 30.0533 9.63Z" stroke="#EEEDE9" stroke-width="2" stroke-linecap="round" stroke-linejoin="round"/>
<path id="Vector_2" d="M13 22.5297L20.6667 17.6247L13 12.7197V22.5297Z" stroke="#EEEDE9" stroke-width="2" stroke-linecap="round" stroke-linejoin="round"/>
</g>
</svg>
